<svg xmlns="http://www.w3.org/2000/svg" xmlns:xlink="http://www.w3.org/1999/xlink" width="246.374" height="73.81" viewBox="0 0 65.1865 19.528988"><defs><linearGradient id="c"><stop stop-color="#ffcb3b" offset="0"/><stop stop-color="#ffc02a" offset="1"/></linearGradient><linearGradient id="b"><stop stop-color="#ffc600" offset="0"/><stop stop-color="#ffd543" offset="1"/></linearGradient><linearGradient id="a"><stop stop-color="#ffda5f" offset="0"/><stop stop-opacity=".996" stop-color="#ffd321" offset="1"/></linearGradient><linearGradient xlink:href="#a" id="g" x1="-278.04" y1="338.103" x2="-290.047" y2="351.986" gradientUnits="userSpaceOnUse" gradientTransform="matrix(.95533 -.29555 .82623 .56334 -3.973 -272.639)"/><linearGradient xlink:href="#b" id="f" x1="-294.984" y1="355.732" x2="-285.748" y2="345.054" gradientUnits="userSpaceOnUse" gradientTransform="matrix(.95533 -.29555 .82623 .56334 -3.973 -272.639)"/><linearGradient xlink:href="#c" id="d" x1="-290.002" y1="350.567" x2="-299.805" y2="361.901" gradientUnits="userSpaceOnUse" gradientTransform="matrix(.90087 -.2787 .77913 .53122 -3.223 -256.297)"/><filter id="e" x="-.29" width="1.579" y="-.476" height="1.951" color-interpolation-filters="sRGB"><feGaussianBlur stdDeviation=".853"/></filter></defs><path d="M0 9.428l9.757-5.31 8.628 5.883-9.757 5.31z" fill="#ffff52" fill-opacity=".138"/><path d="M.524 13.574l9.201-5.008 8.136 5.547-9.201 5.008z" fill="url(#d)"/><path d="M.524 13.574l9.201-5.007 8.136 5.547-9.201 5.008z" fill="#ffbb2a" fill-opacity=".326"/><path transform="translate(-8.151 -363.889) scale(1.33354)" d="M9.265 283.213l3.751-2.041 3.317 2.261-3.75 2.042z" opacity=".1" fill="#aa6a16" filter="url(#e)"/><path d="M0 9.428l9.757-5.31L18.385 10l-9.757 5.31z" fill="url(#f)"/><path d="M9.265 283.213l3.751-2.041 3.317 2.261-3.75 2.042z" transform="translate(-8.151 -369.181) scale(1.33354)" opacity=".1" fill="#a26c1c" filter="url(#e)"/><path d="M0 5.31L9.757 0l8.628 5.883-9.757 5.31z" fill="url(#g)"/><path d="M0 5.311l8.628 5.882v.32L.012 5.643z" fill="#f4bc00"/><path d="M18.385 5.883l-9.757 5.31v.32l9.725-5.357z" fill="#f8c000"/><path d="M0 9.428l8.628 5.883.017.359L.029 9.801z" fill="#eab100"/><path d="M18.385 10.001l-9.757 5.31.017.359 9.725-5.356z" fill="#f6b600"/><path d="M.524 13.574l8.136 5.548v.387L.535 13.974z" fill="#eca200"/><path d="M17.861 14.114L8.66 19.122v.387l9.17-5.051z" fill="#fcac00"/><path d="M0 5.311L9.757.001l8.628 5.882-9.757 5.31z" fill="#ffff52" fill-opacity=".138"/><g fill="#4d4d4d" stroke="#4d4d4d" stroke-width=".375"><path d="M22.203 4.758h.935v6.924h4.074v.868h-5.009zm10.254 6.857h-.133q-.267.556-.746.823-.467.268-.99.268-.546 0-1.013-.179-.467-.189-.824-.545-.345-.367-.545-.89-.2-.523-.2-1.214V9.7q0-.679.2-1.202.2-.523.545-.879.357-.367.824-.556.467-.19.99-.19.568 0 1.025.256.467.245.734.768h.134v-.868h.868v4.385q0 .334.3.334h.279v.802h-.59q-.379 0-.623-.245-.234-.245-.234-.623zm-1.78.267q.39 0 .712-.145.334-.144.568-.412.234-.267.367-.634.134-.378.134-.835v-.133q0-.446-.134-.813-.133-.378-.378-.645-.234-.268-.568-.412-.323-.156-.701-.156-.39 0-.712.145-.323.144-.568.411-.234.256-.367.635-.134.367-.134.812v.178q0 .947.49 1.48.5.524 1.29.524zm5.168-3.428q0 .4.334.612.345.211 1.247.278.968.078 1.469.468.512.378.512 1.113v.067q0 .4-.167.723-.156.312-.445.534-.279.223-.69.334-.401.123-.88.123-.645 0-1.113-.167-.456-.178-.768-.457-.3-.29-.456-.645-.156-.368-.178-.735l.823-.2q.056.634.49 1.024.434.378 1.158.378.612 0 .98-.234.378-.244.378-.678 0-.468-.368-.668-.367-.2-1.19-.256-.958-.067-1.47-.446-.512-.378-.512-1.101v-.067q0-.39.167-.68.167-.3.445-.5.29-.2.646-.3.356-.1.746-.1.545 0 .957.155.412.145.69.39.278.233.423.545.156.312.2.623l-.823.2q-.056-.534-.435-.834-.367-.3-.968-.3-.234 0-.456.055-.212.045-.379.145-.167.1-.267.256-.1.144-.1.345z"/><path letter-spacing="-.39" d="M44.953 11.615h-.133q-.267.556-.746.823-.468.268-.99.268-.546 0-1.013-.179-.468-.189-.824-.545-.345-.367-.546-.89-.2-.523-.2-1.214V9.7q0-.679.2-1.202.2-.523.546-.879.356-.367.824-.556.467-.19.99-.19.568 0 1.024.256.468.245.735.768h.133v-.868h.868v4.385q0 .334.3.334h.28v.802h-.59q-.38 0-.624-.245-.234-.245-.234-.623zm-1.78.267q.389 0 .712-.145.334-.144.567-.412.234-.267.368-.634.133-.378.133-.835v-.133q0-.446-.133-.813-.134-.378-.379-.645-.233-.268-.567-.412-.323-.156-.702-.156-.39 0-.712.145-.323.144-.568.411-.233.256-.367.635-.133.367-.133.812v.178q0 .947.49 1.48.5.524 1.29.524z"/><path letter-spacing="-.501" d="M51.557 11.704h-.133q-.268.5-.735.757-.456.245-1.002.245-.556 0-1.046-.19-.49-.189-.868-.545-.367-.356-.59-.88-.212-.534-.212-1.213V9.7q0-.667.223-1.19.223-.535.59-.891.367-.367.857-.556.49-.19 1.024-.19.601 0 1.046.267.457.256.713.757h.133v-.868h.868v6.879q0 .378-.245.623-.233.245-.612.245h-3.595v-.802h3.284q.3 0 .3-.334zm-1.847.178q.39 0 .723-.145.334-.144.579-.412.256-.267.4-.634.145-.378.145-.835v-.133q0-.446-.145-.813-.144-.378-.4-.645-.245-.268-.59-.412-.334-.156-.712-.156-.39 0-.735.145-.334.144-.59.411-.245.268-.39.635-.133.367-.133.812v.178q0 .468.133.835.145.368.39.635.256.256.59.4.334.134.735.134z"/><path d="M54.533 12.55h-.869V7.03h.869v.934h.133q.512-1.09 1.781-1.09.957 0 1.525.6.567.59.567 1.781v3.295h-.868V9.433q0-.868-.39-1.302-.389-.434-1.057-.434-.79 0-1.246.545-.445.535-.445 1.436zm6.014-2.493q.033.823.512 1.324.478.5 1.335.5.39 0 .68-.088.289-.09.489-.245.211-.156.334-.356.133-.212.211-.445l.824.222q-.234.768-.868 1.258-.624.479-1.692.479-.59 0-1.09-.2-.49-.212-.847-.59-.356-.38-.556-.902-.2-.523-.2-1.158v-.267q0-.579.2-1.08.211-.5.579-.857.367-.367.857-.567.5-.212 1.08-.212.678 0 1.168.256.5.245.812.612.323.368.468.802.156.434.156.801v.713zm1.847-2.36q-.367 0-.69.122-.312.112-.556.323-.234.212-.39.501-.145.278-.19.612h3.563q-.023-.356-.179-.645-.144-.29-.39-.49-.233-.2-.544-.312-.301-.111-.624-.111z"/></g></svg>